<svg id="visual" viewBox="0 0 7680 4320" width="7680" height="4320" xmlns="http://www.w3.org/2000/svg" xmlns:xlink="http://www.w3.org/1999/xlink" version="1.1"><rect x="0" y="0" width="7680" height="4320" fill="#0ff"></rect><defs><linearGradient id="grad1_0" x1="43.8%" y1="0%" x2="100%" y2="100%"><stop offset="14.444444444444446%" stop-color="#00ffff" stop-opacity="1"></stop><stop offset="85.55555555555554%" stop-color="#00ffff" stop-opacity="1"></stop></linearGradient></defs><defs><linearGradient id="grad2_0" x1="0%" y1="0%" x2="56.3%" y2="100%"><stop offset="14.444444444444446%" stop-color="#00ffff" stop-opacity="1"></stop><stop offset="85.55555555555554%" stop-color="#00ffff" stop-opacity="1"></stop></linearGradient></defs><g transform="translate(7680, 0)"><path d="M0 3888C-441.5 3577.8 -883 3267.6 -1245.3 3006.3C-1607.5 2745 -1890.4 2532.7 -2315.1 2315.1C-2739.8 2097.5 -3306.3 1874.6 -3592 1487.9C-3877.8 1101.2 -3882.9 550.6 -3888 0L0 0Z" fill="#fff"></path></g><g transform="translate(0, 4320)"><path d="M0 -3888C533.6 -3854.7 1067.1 -3821.5 1487.9 -3592C1908.6 -3362.6 2216.6 -2937 2567.5 -2567.5C2918.4 -2198 3312.2 -1884.6 3539.4 -1466.1C3766.6 -1047.5 3827.3 -523.7 3888 0L0 0Z" fill="#fff"></path></g></svg>