<svg id="visual" viewBox="0 0 7680 4320" width="7680" height="4320" xmlns="http://www.w3.org/2000/svg" xmlns:xlink="http://www.w3.org/1999/xlink" version="1.1"><g transform="translate(7540.982283198176 308.4381197143714)"><path d="M1233.7 -2130.4C1642.8 -1900.7 2048.5 -1658.8 2382.4 -1301.8C2716.2 -944.7 2978.1 -472.3 2802.9 -101.2C2627.7 270 2015.3 540 1694.8 920.2C1374.3 1300.4 1345.7 1790.7 1111.8 1980.2C878 2169.7 439 2058.4 68.5 1939.7C-302 1821.1 -604 1695.2 -982.9 1589.4C-1361.8 1483.7 -1817.5 1398.1 -2118.7 1136.5C-2419.9 875 -2566.4 437.5 -2579.9 -7.7C-2593.3 -453 -2473.6 -906 -2275.9 -1346.8C-2078.2 -1787.6 -1802.6 -2216.2 -1410.3 -2455.6C-1018 -2694.9 -509 -2744.9 -48.3 -2661.2C412.3 -2577.5 824.7 -2360 1233.7 -2130.4" fill="#0ff"></path></g></svg>